<svg width="24" height="24" xmlns="http://www.w3.org/2000/svg" fill-rule="evenodd" clip-rule="evenodd"><path d="M24 24h-24v-24h24v24zm-1-19h-22v18h22v-18zm-1 17h-12v-16h12v16zm-1-15h-10v14h10v-14zm-15 14h-4v-1h4v1zm2-2h-6v-1h6v1zm8.391-7.404c-.2-.612-1.262-.528-1.224.231-.114.251-.623 1.148-2.315 1.977-.534.261-.852.742-.852 1.286 0 .888.818 1.443 1.668 1.315l.835.922c.05.055.329.338.752.201l.486-.162c.405-.135.484-.599.302-.868l-.431-.668c.453-.072.952-.015 1.163.032.159.188.442.271.677.189.328-.108.507-.464.392-.816l-1.453-3.639zm-8.391 5.404h-6v-1h6v1zm6.427-1.613l.853 1.331-.233.078-1.129-1.247-.232.075c-.309.095-.736.054-.883-.312-.118-.294 0-.637.383-.825 1.754-.861 2.413-1.827 2.637-2.268l1.16 2.912c-1.288-.313-2.379.193-2.556.256zm5.573-1.697c0 .124-.01.787-.288 1.344l-.694-.3c.297-.706.286-1.382.036-2-.256-.63-.727-1.12-1.417-1.407l.297-.696c.392.13 2.066 1.003 2.066 3.059zm-1.278-.82c.239.588.199 1.236-.035 1.719l-.681-.284c.144-.372.201-.728.028-1.155-.162-.4-.443-.646-.825-.807l.289-.687c.612.256 1.009.683 1.224 1.214zm-12.722 1.228h-4v-1h4v1zm2-2.098h-6v-1h6v1zm0-1.903h-6v-1h6v1zm0-2.097h-6v-1h6v1zm15-7h-22v3h22v-3z"/></svg>